<svg xmlns="http://www.w3.org/2000/svg" width="68.096" height="50" viewBox="0 0 68.096 50"><defs><style>.a{opacity:0.6;}.b{fill:#fff;fill-rule:evenodd;}</style></defs><g class="a" transform="translate(-612.3 -848.2)"><path class="b" d="M1127.508,891.609l-2.062-7.694.876-1.628a19.969,19.969,0,1,0-8.137,8.137l1.628-.876Zm-36.195-36.195a24.633,24.633,0,0,1,39.114,29.081l.825,3.077L1134.1,898.2l-10.628-2.848-3.077-.824a24.633,24.633,0,0,1-29.081-39.114Z" transform="translate(-453.703)"/><path class="b" d="M640.643,850.877a18.3,18.3,0,0,0-25.616,24.3l-.612,2.286-2.115,7.894,7.894-2.115,2.286-.612a18.3,18.3,0,0,0,9.16,2.17,26.073,26.073,0,0,1-1.473-3.484,14.768,14.768,0,0,1-6.047-1.734l-1.21-.651-5.715,1.531,1.531-5.715-.651-1.21a14.837,14.837,0,0,1,19.563-20.362,26.3,26.3,0,0,1,3-2.3" transform="translate(0 -0.02)"/><path class="b" d="M1645.817,1406.322a3.593,3.593,0,1,1-3.593,3.593,3.593,3.593,0,0,1,3.593-3.593" transform="translate(-990.421 -536.715)"/><path class="b" d="M1385.483,1406.321a3.593,3.593,0,1,1-3.593,3.593,3.593,3.593,0,0,1,3.593-3.593" transform="translate(-740.072 -536.714)"/><path class="b" d="M1906.148,1406.321a3.593,3.593,0,1,1-3.593,3.593,3.593,3.593,0,0,1,3.593-3.593" transform="translate(-1240.767 -536.714)"/></g></svg>