<svg xmlns="http://www.w3.org/2000/svg" width="160" height="86.108" viewBox="0 0 160 86.108"><defs><style>.a{fill:#fff;}</style></defs><g transform="translate(-921.429 -249.819)"><path class="a" d="M960.339,268.933v33.374a5.453,5.453,0,0,1-3.624,5.151,4.966,4.966,0,0,1-2,.38,5.533,5.533,0,0,1-4.2-2l-17.93-21.551v18.022a5.578,5.578,0,0,1-11.157,0V268.933a5.485,5.485,0,0,1,3.624-5.245,5,5,0,0,1,2-.38,5.538,5.538,0,0,1,4.2,2.009l18.024,21.542V268.933a5.531,5.531,0,0,1,11.06-.178c0,.06,0,.119,0,.178" transform="translate(0 5.869)"/><path class="a" d="M948.54,324.864a5.555,5.555,0,0,1,5.485-5.624h.044c3.146,0,4.2-1.24,4.767-2.478a8.37,8.37,0,0,0,.861-3.052V274.8a5.578,5.578,0,1,1,11.157,0h0v38.9a18.712,18.712,0,0,1-2,8.009c-2.765,5.627-8.009,8.677-14.782,8.677a5.533,5.533,0,0,1-5.53-5.53m16.778-63.885a5.578,5.578,0,1,1,5.53-5.626h0a5.575,5.575,0,0,1-5.525,5.626Z" transform="translate(11.796 0)"/><path class="a" d="M1029.5,304.692l-.669,1.049-9.535,21.073a5.485,5.485,0,0,1-5.055,3.242,5.327,5.327,0,0,1-2.384-.476,5.451,5.451,0,0,1-3.146-5.054,4.953,4.953,0,0,1,.478-2.289l9.057-20.119-14.589-30.8a5.153,5.153,0,0,1-.574-2.384,5.558,5.558,0,0,1,3.146-5.054,5.5,5.5,0,0,1,2.384-.574,5.655,5.655,0,0,1,5.056,3.242l10.869,22.79,10.776-22.79a5.644,5.644,0,0,1,5.052-3.242,5.486,5.486,0,0,1,2.385.574,5.561,5.561,0,0,1,3.147,5.054,5.175,5.175,0,0,1-.574,2.384L1029.5,304.691" transform="translate(35.529 5.868)"/><path class="a" d="M991.606,263.309a22.08,22.08,0,0,0-22.078,22.073,21.1,21.1,0,0,0,.172,2.727c1.976,15.138,21.905,32.121,21.905,32.121s20.005-16.805,21.88-31.9a22.432,22.432,0,0,0,.2-2.945A22.08,22.08,0,0,0,991.606,263.3m-.212,32.254a7.806,7.806,0,1,1,.006.006h-.006Z" transform="translate(20.928 5.867)"/></g></svg>